<?xml version="1.0" encoding="utf-8"?>
<!-- Generator: Adobe Illustrator 25.2.3, SVG Export Plug-In . SVG Version: 6.00 Build 0)  -->
<svg version="1.1" xmlns="http://www.w3.org/2000/svg" xmlns:xlink="http://www.w3.org/1999/xlink" x="0px" y="0px"
	 viewBox="0 0 1080 818.04" style="enable-background:new 0 0 1080 818.04;" xml:space="preserve">
<style type="text/css">
	.st0{fill:#EDF0F9;}
	.st1{fill:none;stroke:#154A93;stroke-miterlimit:10;}
	.st2{fill:none;stroke:#154A93;stroke-width:2;stroke-miterlimit:10;}
	.st3{fill:#BDCBF4;}
	.st4{fill:#E8ECFC;}
	.st5{fill:#154A93;}
</style>
<g id="Layer_1">
	<circle class="st0" cx="534.03" cy="407.67" r="349.15"/>
	<path class="st3" d="M913.89,507.61l-31.12-17.91c-2.66-1.53-6,0.29-6.16,3.35l-1.85,35.86c-0.22,4.19-5.83,5.41-7.76,1.68
		l-16.5-31.9c-1.41-2.73-5.21-3-7-0.51l-20.94,29.17c-2.45,3.41-7.83,1.39-7.44-2.79l3.36-35.75c0.29-3.06-2.76-5.34-5.61-4.21
		l-33.39,13.22c-3.9,1.55-7.34-3.06-4.75-6.36l22.16-28.26c1.9-2.42,0.57-5.98-2.44-6.58l-35.23-6.93
		c-4.12-0.81-4.52-6.55-0.56-7.92l33.92-11.79c2.9-1.01,3.71-4.73,1.5-6.85l-25.89-24.88c-3.03-2.91-0.27-7.95,3.82-6.97l34.91,8.42
		c2.99,0.72,5.68-1.97,4.97-4.95l-8.33-34.93c-0.97-4.08,4.08-6.83,6.98-3.8l24.82,25.96c2.12,2.22,5.84,1.42,6.86-1.48l11.88-33.89
		c1.39-3.96,7.12-3.54,7.92,0.58l6.84,35.25c0.59,3.02,4.15,4.35,6.57,2.46l28.31-22.09c3.31-2.58,7.91,0.87,6.35,4.77l-13.3,33.36
		c-1.14,2.85,1.14,5.9,4.2,5.62l35.76-3.27c4.18-0.38,6.18,5.01,2.77,7.45l-29.22,20.87c-2.5,1.79-2.23,5.58,0.49,7l31.85,16.58
		c3.72,1.94,2.5,7.55-1.7,7.76l-35.87,1.76c-3.07,0.15-4.9,3.49-3.37,6.15L919.51,502C921.59,505.65,917.52,509.71,913.89,507.61z"
		/>
	<g>
		<path class="st4" d="M412.12,310.06l67.2-25.85l2.47-99.57c0,0,7.49-64.81,38.5-47.49l6.2,10.05l8.56,33.8l5.35,95.61l3.42-1.92
			l11.9-93.05l17.54-44.85l18.91-4.99l9.41,6.84c0,0,7.31,25.03,7.83,25.88c0.51,0.86,1.58,89.29,1.58,89.29l2.04,12.1l31.76,1.28
			v99.53l-4.42,79.29l-3.42,45.06l-144.38,102.1c0,0-48.88-46.25-101.84-12l0.72-55.16L412.12,310.06z"/>
		<g>
			<path class="st5" d="M389.1,520.17c0.68-7.61,1.44-15.21,2.04-22.82c1.41-17.79,2.68-35.59,4.12-53.38
				c1.5-18.47,2.97-36.95,4.77-55.4c1.16-11.92,2.98-23.77,4.33-35.68c1.43-12.59,2.85-25.19,3.89-37.82
				c0.4-4.91,2.25-8.19,6.87-9.84c9.82-3.5,19.69-6.87,29.47-10.51c10.17-3.78,20.26-7.76,30.32-11.81
				c0.84-0.34,1.55-1.84,1.71-2.89c0.35-2.34,0.37-4.73,0.42-7.1c0.29-14.23,0.07-28.49,0.95-42.68
				c1.04-16.81,2.97-33.56,4.61-50.32c1-10.19,3.29-20.05,8.12-29.19c3.31-6.27,7.43-11.76,13.73-15.38
				c6.61-3.79,12.79-3.15,18.41,1.98c7.05,6.45,9.74,15.02,11.94,23.91c4.84,19.58,6.45,39.56,7.61,59.6
				c0.71,12.38,1.37,24.76,2.09,37.82c0.71-8.31,1.09-16.01,2.07-23.62c2.53-19.74,4.87-39.53,8.2-59.15
				c1.54-9.08,5.03-17.87,7.98-26.68c3.1-9.26,8.84-15.99,19.05-17.78c3.35,0,6.7,0,10.05,0c8.63,1.66,13.88,7.16,16.77,15.12
				c3.78,10.39,6.45,21.14,6.59,32.17c0.34,27.19,0.12,54.38,0.13,81.57c0,2.19,0,4.38,0,6.63c9.84,0,19.29-0.1,28.73,0.09
				c1.87,0.04,3.72,1.19,5.58,1.83c0,6.42,0,12.85,0,19.27c0,10.89,0,21.78,0,32.67c0,13.13,0,26.25,0,39.38
				c-0.53,6.93-1.17,13.85-1.59,20.79c-2.27,37.52-4.44,75.06-6.82,112.57c-0.11,1.68-1.52,3.82-2.97,4.76
				c-7.8,5.08-15.9,9.71-23.73,14.74c-20.84,13.37-41.74,26.67-62.36,40.37c-15.99,10.62-32.34,20.79-46.32,34.2
				c-3.7,3.55-8.01,6.46-12.03,9.66c-0.84,0-1.68,0-2.51,0c-2.37-1.68-4.76-3.35-7.12-5.05c-8.71-6.28-17.63-12.26-28.23-14.81
				c-15.78-3.8-31.52-5.24-46.89,2.07c-3.87,1.84-8,3.16-12.05,4.61c-4.06,1.45-6.22-0.05-6.34-4.2
				c-0.27-9.75-0.54-19.49-0.89-29.24c-0.08-2.34-0.46-4.67-0.7-7.01C389.1,535.81,389.1,527.99,389.1,520.17z M644.88,274.21
				c-7.37,2.8-13.97,5.36-20.61,7.8c-8.52,3.13-8.54,3.08-8.83,11.92c-0.42,12.53-0.42,12.53-12.37,16.2
				c-4.5,1.38-6.1,0.28-6.41-4.57c-0.25-3.84-0.37-7.68-0.56-11.75c-9.76,3.36-19.09,6.5-28.33,9.87c-0.88,0.32-1.65,2.05-1.75,3.19
				c-0.46,5.13-0.56,10.3-1.05,15.43c-0.12,1.26-0.98,3.12-1.97,3.51c-4,1.58-8.13,2.89-12.31,3.93c-4.19,1.04-6.11-0.48-6.3-4.78
				c-0.17-4.03-0.04-8.07-0.04-12.47c-3.07,1.2-5.71,2.4-8.45,3.29c-8.59,2.77-17.25,5.33-25.8,8.23c-1.18,0.4-2.63,2.15-2.69,3.35
				c-1.02,19.5-1.95,39.01-2.66,58.52c-0.66,17.99-0.76,36-1.6,53.98c-0.82,17.69-2.5,35.34-3.34,53.03
				c-0.75,15.72-0.75,31.47-1.31,47.2c-0.55,15.33-1.41,30.65-2.11,45.97c-0.05,1.14,0.11,2.29,0.21,4.16
				c3.16-2.29,6-3.87,8.27-6.05c16.89-16.22,36.03-29.46,55.59-42.14c22.32-14.46,44.63-28.92,67.13-43.09
				c6.37-4.01,11.45-8.14,9.76-16.6c-0.03-0.13,0.04-0.27,0.05-0.41c1.3-16.39,2.99-32.76,3.79-49.17
				c0.82-16.86,0.65-33.76,1.16-50.64c0.96-31.93,2.12-63.85,3.11-95.77C645.56,282.61,645.11,278.86,644.88,274.21z M491.41,591.1
				c0.78-22.08,1.44-43.67,2.34-65.24c0.97-23.26,2.21-46.52,3.26-69.78c0.55-12.26,1.16-24.51,1.38-36.78
				c0.28-16.03-0.04-32.08,0.32-48.11c0.31-14.22,1.16-28.43,1.84-42.64c0.3-6.27-2.12-11.23-6.36-15.75
				c-9.71-10.35-21.39-15.12-35.4-12.12c-12.74,2.73-25.34,6.14-37.92,9.55c-3.91,1.06-6.29,3.58-6.7,8.35
				c-1.46,17.06-3.71,34.05-5.15,51.1c-1.6,19.02-2.65,38.08-3.93,57.13c-0.83,12.37-1.32,24.78-2.57,37.1
				c-1.31,12.87-4.16,25.63-4.89,38.51c-1.01,17.67-0.68,35.41-0.87,53.12c-0.08,7.22-0.01,14.43-0.01,22.67
				C431.2,563.14,462.42,569.6,491.41,591.1z M548.98,325.67c4.08-1.24,7.4-2.14,10.62-3.32c0.62-0.23,1.18-1.48,1.24-2.3
				c1.16-15.7,3.13-31.4,3.13-47.11c0.01-26.39,0.35-52.73,4.55-78.82c2.05-12.73,5.21-25.3,8.2-37.86c1.12-4.7,4.09-6.35,8.99-6.54
				c4.41-0.18,6.58,2.5,8.01,6.08c0.67,1.66,1.25,3.44,1.42,5.21c2.02,20.65,4.79,41.28,5.7,61.98c1.15,26.06,0.77,52.18,1.06,78.27
				c0.01,1.18,0.15,2.36,0.24,3.54c9.84-1.11,9.94-1.39,9.46-10.57c-0.58-11.01-1.13-22.03-1.26-33.04
				c-0.29-23.72-0.29-47.45-0.43-71.18c-0.08-13.6-1.64-26.99-6.48-39.79c-1.72-4.56-3.63-9.73-8.73-11.12
				c-10.4-2.83-20.28-1.58-25.4,9.4c-7.19,15.44-10.01,31.84-12.51,48.31c-2.5,16.51-4.13,33.17-5.74,49.81
				c-1.22,12.61-2.17,25.28-2.59,37.94c-0.38,11.7,0.09,23.44,0.21,35.16C548.69,321.36,548.84,323,548.98,325.67z M528.64,280.92
				c2.22-0.56,3.66-1.07,5.13-1.27c3.86-0.52,5.02-2.32,4.83-6.43c-0.69-14.49-0.15-29.06-1.32-43.49
				c-1.64-20.1-4.1-40.16-6.84-60.15c-1.18-8.62-3.23-17.28-8.78-24.52c-5.33-6.96-9.2-7.85-16.26-2.88
				c-2.89,2.03-5.91,4.64-7.42,7.71c-3.29,6.68-6.71,13.6-8.14,20.81c-2.56,12.81-4.22,25.86-5.29,38.89
				c-2.12,25.71-4.31,51.45-2.54,77.3c0.48,7.1,0.45,7.05,7.64,6.27c3.5-0.38,5.12-1.6,5.14-5.67c0.11-17.02,0.46-34.04,1.12-51.05
				c0.78-20.2,1.72-40.4,3.11-60.56c0.48-7.01,2.37-13.95,3.95-20.84c0.8-3.49,3.25-5.82,7.01-6.3c3.68-0.47,6.2,1.54,7.96,4.36
				c1.68,2.69,3.49,5.54,4.2,8.57c2,8.52,4.34,17.1,4.99,25.77c2.16,28.95,2.82,57.96,1.54,86.99
				C528.56,276.45,528.64,278.48,528.64,280.92z M500.92,274.88c4.94-1.38,10.56-2.95,16.18-4.52c6.85-1.92,6.97-1.93,6.87-9.36
				c-0.23-16.45-0.37-32.91-0.98-49.36c-0.4-10.86-0.9-21.79-2.57-32.5c-1.13-7.29-4.25-14.3-6.74-21.34
				c-0.42-1.19-2.15-1.92-3.27-2.87c-0.9,1.15-2.26,2.18-2.61,3.48c-1.22,4.56-2.7,9.17-3,13.83c-1.48,23.1-2.8,46.21-3.8,69.34
				C500.53,252.55,500.92,263.56,500.92,274.88z M595.94,265.19c0.1-1.48,0.2-2.16,0.18-2.83c-0.61-19.78-0.78-39.59-2.01-59.33
				c-0.88-14.12-3.06-28.17-4.96-42.21c-0.24-1.81-2.3-3.37-3.52-5.04c-1.3,1.57-3.17,2.95-3.8,4.75
				c-5.05,14.39-7.64,29.26-8.63,44.49c-0.74,11.38-2.28,22.7-3.16,34.08c-0.4,5.09-0.07,10.24-0.07,15.85
				c3.17-0.84,6.45-1.97,9.81-2.46c1.31-0.19,4.01,0.92,4.08,1.64C584.64,261.49,590.91,262.1,595.94,265.19z M485.89,297.69
				c8.84,5.02,18.14,9.43,20.68,20.61c0.94,0,1.53,0.15,2.01-0.02c11.29-3.93,22.59-7.86,33.83-11.93c0.73-0.26,1.49-1.62,1.51-2.49
				c0.12-6.77,0.07-13.55,0.07-20.49c-5.43,1.41-9.84,2.63-14.29,3.69c-4.33,1.03-6.33-0.45-6.62-4.97
				c-0.17-2.7-0.03-5.41-0.03-8.59c-8.17,2.65-15.65,5.08-23.27,7.55c0,4-0.17,7.9,0.06,11.78c0.15,2.51-0.7,3.66-3.13,3.86
				C493.1,296.99,489.5,297.35,485.89,297.69z M565.96,297.6c4.73-1.58,8.37-2.95,12.1-3.98c2.4-0.67,2.87-1.99,2.73-4.28
				c-0.37-6.27-0.54-12.55-0.69-18.82c-0.1-4.39-0.02-8.79-0.02-13.48c-1.92,0.48-3.26,0.78-4.58,1.16c-6.18,1.78-6.16,1.79-6.4,8.2
				c-0.07,1.81-0.23,3.62-0.42,5.42C567.83,280.1,566.94,288.39,565.96,297.6z M582.88,291.85c4.45-1.59,8.1-2.8,11.65-4.26
				c0.77-0.32,1.6-1.55,1.66-2.4c0.27-4.59,0.46-9.2,0.31-13.79c-0.04-1.1-1.26-2.67-2.33-3.14c-3.87-1.71-7.9-3.04-11.29-4.3
				C582.88,272.63,582.88,281.89,582.88,291.85z M615.37,279.83c7.44-2.36,14.31-4.54,21.18-6.72c-0.1-0.42-0.2-0.84-0.3-1.27
				c-6.89,0-13.77,0-20.88,0C615.37,274.22,615.37,276.67,615.37,279.83z M452.21,295.8c0.03,0.1,0.06,0.19,0.09,0.29
				c7.96-0.65,15.91-1.3,23.8-1.95c0-1.91,0-3.84,0-6.19C467.96,290.63,460.08,293.21,452.21,295.8z"/>
		</g>
	</g>
	<circle class="st1" cx="728.91" cy="672.69" r="4.72"/>
	<circle class="st2" cx="298.67" cy="503.18" r="7.91"/>
	<circle class="st1" cx="727.86" cy="507.13" r="3.96"/>
	<circle class="st1" cx="706.47" cy="497.93" r="3.96"/>
	<circle class="st1" cx="392.76" cy="269.79" r="3.96"/>
	<circle class="st1" cx="371.37" cy="260.59" r="3.96"/>
	<g>
		<path class="st5" d="M829,558.72c-3.33-16.85-15.91-27.64-31.74-27.63c-15.81,0-28.29,10.74-31.65,27.41c-21.93,0-43.91,0-66.01,0
			c-0.41-1.59-0.78-3.22-1.27-4.83c-4.31-14.2-17.22-23.14-32.53-22.55c-13.76,0.53-26.19,11.13-29.08,25.03
			c-0.45,2.17-1.3,2.8-3.34,2.61c-1.68-0.16-3.39-0.01-5.08-0.07c-7.86-0.29-14.87-6.61-14.86-14.41
			c0.03-26.2,3.19-51.89,14.24-76.03c3.98-8.7,9.32-16.47,16.88-22.53c7.44-5.97,15.89-9.4,25.47-9.82
			c13.14-0.58,26.29-1.13,39.43-1.67c30.48-1.25,54.45,11.14,72.84,35c4.01,5.2,7.57,10.75,11.5,16.02c0.93,1.24,2.36,2.41,3.8,2.92
			c8.26,2.91,16.66,5.39,24.87,8.41c17.21,6.34,25.75,19.21,27.18,37.17c0.24,2.98,0.52,5.96,0.53,8.95
			c0.03,9.13-6.63,15.84-15.76,16.01C832.66,558.75,830.88,558.72,829,558.72z M770.67,491.04c-11.98-23.72-40.98-38.67-66.42-34.32
			c0,11.37,0,22.76,0,34.32C726.42,491.04,748.41,491.04,770.67,491.04z M642.49,490.96c15.87,0,31.25,0,46.6,0
			c0-11.35,0-22.45,0-33.18c-5.99,0-11.76-0.14-17.53,0.04c-6.06,0.18-11.18,2.74-15.37,7.05
			C649.13,472.15,645.52,481.26,642.49,490.96z"/>
		<path class="st5" d="M667.74,584.39c-11.85-0.03-21.49-9.72-21.44-21.54c0.05-11.79,9.85-21.49,21.62-21.41
			c11.87,0.08,21.43,9.73,21.39,21.59C689.27,574.91,679.67,584.42,667.74,584.39z"/>
		<path class="st5" d="M818.74,563.37c-0.27,12.06-10.01,21.28-22.19,21.01c-11.64-0.25-21.01-10.16-20.72-21.89
			c0.29-11.93,10.12-21.38,21.9-21.06C809.68,541.77,819.01,551.51,818.74,563.37z"/>
	</g>
</g>
<g id="Layer_2">
</g>
</svg>
