<svg id="Layer_1" data-name="Layer 1" xmlns="http://www.w3.org/2000/svg" viewBox="0 0 1000 1000"><defs><style>.cls-1{fill:#42210b;}</style></defs><g id="Group_150" data-name="Group 150"><path id="Path_200" data-name="Path 200" class="cls-1" d="M40.27,348.1l424.06-46.65c-.49,1.11-1,2.21-1.56,3.28l-20.88,24.19Z"/><path id="Path_201" data-name="Path 201" class="cls-1" d="M558.37,328.87A319.63,319.63,0,0,1,537,301.49L960,348Z"/></g><g id="Group_3454" data-name="Group 3454"><path id="Path_200-2" data-name="Path 200-2" class="cls-1" d="M40.27,464.73l424.06-46.65c-.49,1.12-1,2.21-1.56,3.29l-20.88,24.18Z"/><path id="Path_201-2" data-name="Path 201-2" class="cls-1" d="M558.37,445.51A321.34,321.34,0,0,1,537,418.12l423,46.54Z"/></g><g id="Group_3455" data-name="Group 3455"><path id="Path_200-3" data-name="Path 200-3" class="cls-1" d="M40.27,581.37l424.06-46.66c-.49,1.12-1,2.22-1.56,3.29l-20.88,24.19Z"/><path id="Path_201-3" data-name="Path 201-3" class="cls-1" d="M558.37,562.14A319.63,319.63,0,0,1,537,534.76l423,46.53Z"/></g><g id="Group_3456" data-name="Group 3456"><path id="Path_200-4" data-name="Path 200-4" class="cls-1" d="M40.27,698l424.06-46.65c-.49,1.12-1,2.21-1.56,3.28l-20.88,24.19Z"/><path id="Path_201-4" data-name="Path 201-4" class="cls-1" d="M558.37,678.78A321.34,321.34,0,0,1,537,651.39l423,46.53Z"/></g></svg>