<?xml version="1.0" encoding="utf-8"?>
<!-- Generator: Adobe Illustrator 25.2.3, SVG Export Plug-In . SVG Version: 6.00 Build 0)  -->
<svg version="1.1" xmlns="http://www.w3.org/2000/svg" xmlns:xlink="http://www.w3.org/1999/xlink" x="0px" y="0px"
	 viewBox="0 0 1080 851.74" style="enable-background:new 0 0 1080 851.74;" xml:space="preserve">
<style type="text/css">
	.st0{fill:#EDF0F9;}
	.st1{fill:none;stroke:#154A93;stroke-miterlimit:10;}
	.st2{fill:none;stroke:#154A93;stroke-width:2;stroke-miterlimit:10;}
	.st3{fill:#BDCBF4;}
	.st4{fill:#E8ECFC;}
	.st5{fill:#154A93;}
</style>
<g id="Layer_1">
	<circle class="st0" cx="536.42" cy="407.67" r="349.15"/>
	<circle class="st1" cx="728.91" cy="672.69" r="4.72"/>
	<circle class="st2" cx="298.67" cy="503.18" r="7.91"/>
	<circle class="st1" cx="750.09" cy="512.44" r="3.96"/>
	<circle class="st1" cx="754.05" cy="531.19" r="3.96"/>
	<circle class="st1" cx="392.76" cy="269.79" r="3.96"/>
	<circle class="st1" cx="371.37" cy="260.59" r="3.96"/>
	<path class="st5" d="M585.34,365.11H552c-6.6,0-12-5.4-12-12v-28.6c0-6.6,5.4-12,12-12h33.34c6.6,0,12,5.4,12,12v28.6
		C597.34,359.71,591.94,365.11,585.34,365.11z"/>
	<path class="st5" d="M418.62,412.6h171.57c2.53,0,4.6-2.07,4.6-4.6l0,0c0-2.53-2.07-4.6-4.6-4.6H418.62c-2.53,0-4.6,2.07-4.6,4.6
		l0,0C414.02,410.53,416.09,412.6,418.62,412.6z"/>
	<path class="st5" d="M418.62,466.79h171.57c2.53,0,4.6-2.07,4.6-4.6l0,0c0-2.53-2.07-4.6-4.6-4.6H418.62c-2.53,0-4.6,2.07-4.6,4.6
		l0,0C414.02,464.72,416.09,466.79,418.62,466.79z"/>
	<path class="st5" d="M418.62,520.99h171.57c2.53,0,4.6-2.07,4.6-4.6l0,0c0-2.53-2.07-4.6-4.6-4.6H418.62c-2.53,0-4.6,2.07-4.6,4.6
		l0,0C414.02,518.92,416.09,520.99,418.62,520.99z"/>
	<path class="st3" d="M221,358.21h150.64c6.6,0,12-5.4,12-12V331.4c0-6.6-5.4-12-12-12H221c-6.6,0-12,5.4-12,12v14.81
		C209,352.81,214.4,358.21,221,358.21z"/>
	<path class="st3" d="M263.89,392.96h110.89c6.6,0,12-5.4,12-12v-14.81c0-6.6-5.4-12-12-12H263.89c-6.6,0-12,5.4-12,12v14.81
		C251.89,387.56,257.29,392.96,263.89,392.96z"/>
	<path class="st3" d="M292.83,428.45h81.96c6.6,0,12-5.4,12-12v-14.81c0-6.6-5.4-12-12-12h-81.96c-6.6,0-12,5.4-12,12v14.81
		C280.83,423.05,286.23,428.45,292.83,428.45z"/>
	<path class="st3" d="M860.7,440.91H710.06c-6.6,0-12-5.4-12-12V414.1c0-6.6,5.4-12,12-12H860.7c6.6,0,12,5.4,12,12v14.81
		C872.7,435.51,867.3,440.91,860.7,440.91z"/>
	<path class="st3" d="M817.81,475.67H706.91c-6.6,0-12-5.4-12-12v-14.81c0-6.6,5.4-12,12-12h110.89c6.6,0,12,5.4,12,12v14.81
		C829.81,470.27,824.41,475.67,817.81,475.67z"/>
	<path class="st3" d="M788.87,511.15h-81.96c-6.6,0-12-5.4-12-12v-14.81c0-6.6,5.4-12,12-12h81.96c6.6,0,12,5.4,12,12v14.81
		C800.87,505.75,795.47,511.15,788.87,511.15z"/>
	<g>
		<path class="st5" d="M645.56,429.81c0,47.52-0.04,95.03,0.05,142.55c0.01,5.86,0.48,11.71-2.48,17.05
			c-4.86,8.78-12.63,12.43-22.43,12.42c-17.93-0.03-35.87-0.01-53.8-0.01c-54.48,0-108.97-0.1-163.45,0.08
			c-10.63,0.03-19.66-2.45-25.73-11.81c-2.93-4.53-4.1-9.57-4.1-14.97c0.03-64.54,0.02-129.07,0.02-193.61
			c0-33.01-0.02-66.02,0.01-99.03c0.01-16.89,10.51-27.38,27.36-27.39c71.62-0.02,143.23,0,214.85-0.08
			c8.12-0.01,15.72,1.04,21.86,6.99c5.59,5.42,7.85,12.1,7.84,19.78c-0.04,26.5,0,53,0,79.5c0,22.84,0,45.69,0,68.53
			C645.57,429.81,645.56,429.81,645.56,429.81z M627.91,429.51c0,0-0.01,0-0.01,0c0-48.89,0-97.77,0-146.66
			c0-7.22-2.63-10.09-9.41-10.09c-72.3-0.02-144.6-0.03-216.91-0.03c-7.67,0-10.22,2.65-10.22,10.36c0,96.75,0,193.49,0,290.24
			c0,8.37,2.44,10.8,10.83,10.8c62.48,0,124.96,0,187.44,0c10.17,0,20.33-0.01,30.5-0.02c6.23-0.01,8.02-1.84,7.84-7.94
			c-0.05-1.6-0.06-3.2-0.06-4.8C627.91,524.09,627.91,476.8,627.91,429.51z"/>
		<path class="st5" d="M700.4,373.92c0,48.66-0.02,97.32,0.02,145.98c0.01,7.57-1.55,14.52-6.96,20.16
			c-5.29,5.52-11.91,7.45-19.34,6.72c-4.84-0.48-7.88-4.12-7.79-8.84c0.08-4.52,3.17-7.89,7.81-8.53c7.66-1.06,8.6-2.12,8.6-10.07
			c0-93.21-0.01-186.41-0.02-279.62c0-3.77,0.03-7.54,0.03-11.31c0-7.93-2.55-10.52-10.4-10.52c-28.67-0.01-57.34-0.01-86.01,0
			c-36.67,0.01-73.33,0.03-110,0.04c-9.79,0-11.6,1.76-11.75,11.48c-0.05,3.43-0.62,6.58-3.69,8.76c-5.08,3.6-12.57,1.19-13.54-4.92
			c-1.74-10.94,0.12-21.98,11.57-29.29c4.82-3.08,10.2-3.76,15.76-3.75c23.99,0.01,47.97,0,71.96,0.01
			c42.38,0.01,84.75,0.06,127.13,0.03c10.82-0.01,19.22,4.32,23.85,14.15c1.87,3.96,2.63,8.78,2.66,13.22
			c0.21,34.84,0.11,69.68,0.11,104.51C700.4,346.05,700.4,359.98,700.4,373.92z"/>
	</g>
</g>
<g id="Layer_2">
</g>
</svg>
